M48
; DRILL file {KiCad 9.0.1} date 2025-04-23T16:55:42-0700
; FORMAT={-:-/ absolute / metric / decimal}
; #@! TF.CreationDate,2025-04-23T16:55:42-07:00
; #@! TF.GenerationSoftware,Kicad,Pcbnew,9.0.1
; #@! TF.FileFunction,Plated,1,2,PTH
FMAT,2
METRIC
; #@! TA.AperFunction,Plated,PTH,ViaDrill
T1C0.300
; #@! TA.AperFunction,Plated,PTH,ComponentDrill
T2C0.750
; #@! TA.AperFunction,Plated,PTH,ComponentDrill
T3C0.800
; #@! TA.AperFunction,Plated,PTH,ComponentDrill
T4C0.900
; #@! TA.AperFunction,Plated,PTH,ComponentDrill
T5C1.000
; #@! TA.AperFunction,Plated,PTH,ComponentDrill
T6C1.100
%
G90
G05
T1
X148.133Y-100.533
T2
X165.354Y-94.082
X166.624Y-92.812
X167.894Y-94.082
T3
X120.04Y-95.504
X120.04Y-100.584
X120.345Y-90.881
X122.58Y-98.044
X127.965Y-90.881
X129.779Y-95.606
X134.779Y-95.606
X163.525Y-111.354
X171.145Y-111.354
T4
X159.71Y-83.769
X162.25Y-83.769
T5
X165.557Y-101.092
X165.557Y-103.632
T6
X127.103Y-103.566
X127.103Y-108.066
X133.603Y-103.566
X133.603Y-108.066
M30
